<?xml version="1.0" standalone="no"?>
<!DOCTYPE svg PUBLIC "-//W3C//DTD SVG 20010904//EN"
 "http://www.w3.org/TR/2001/REC-SVG-20010904/DTD/svg10.dtd">
<svg version="1.0" xmlns="http://www.w3.org/2000/svg"
 width="1920.000000pt" height="1080.000000pt" viewBox="0 0 1920.000000 1080.000000"
 preserveAspectRatio="xMidYMid meet">

<g transform="translate(0.000000,1080.000000) scale(0.100000,-0.100000)"
fill="#000000" stroke="none">
<path d="M2880 6916 l-41 -55 18 -28 c17 -27 75 -107 138 -190 l32 -42 7 -453
c3 -249 11 -770 16 -1158 6 -388 12 -790 14 -895 3 -104 5 -209 5 -232 l1 -43
353 0 c308 0 358 2 387 16 30 16 33 16 42 0 8 -14 46 -16 365 -16 353 0 357 0
390 23 19 12 46 43 60 70 14 26 30 47 34 47 5 0 13 -19 19 -42 6 -24 15 -54
19 -68 l8 -25 278 -3 c237 -2 281 0 295 13 9 8 20 12 25 8 4 -5 5 -3 1 4 -3 6
-1 15 5 18 7 5 9 70 5 219 -3 116 -8 542 -11 946 -3 404 -8 948 -11 1208 -4
259 -5 472 -2 472 15 0 130 -124 133 -143 2 -12 19 -107 39 -212 42 -226 64
-346 72 -400 3 -22 9 -56 14 -75 5 -19 11 -53 14 -75 2 -22 7 -51 10 -65 4
-14 8 -38 10 -55 2 -16 13 -79 25 -140 12 -60 24 -126 27 -145 2 -19 9 -55 14
-80 5 -25 24 -126 41 -225 49 -285 65 -378 99 -565 31 -173 56 -317 66 -375 2
-16 13 -77 24 -135 10 -58 22 -126 26 -152 l6 -48 232 0 232 0 26 27 c15 16
29 45 32 68 11 72 24 147 56 330 17 99 34 200 37 225 3 25 10 53 15 63 5 9 7
21 5 25 -3 4 2 41 9 82 8 41 19 102 24 135 5 33 23 139 40 235 18 96 33 184
35 195 2 11 15 92 29 180 14 88 32 194 40 235 19 97 28 148 32 185 2 17 13 77
23 135 11 58 23 123 26 145 3 23 7 50 9 60 2 11 9 52 15 90 7 39 14 81 17 95
3 14 7 40 9 58 8 67 47 267 54 280 5 10 16 3 37 -25 l29 -38 6 -905 c4 -498 7
-1124 8 -1392 l1 -488 358 0 358 0 24 33 c14 17 25 35 26 40 1 4 2 12 3 17 0
6 6 10 11 10 6 0 10 -22 10 -50 l0 -50 359 0 359 0 41 69 c46 78 50 101 21
119 -11 7 -20 19 -20 27 0 8 -4 15 -9 15 -4 0 -28 26 -53 58 -25 31 -58 71
-72 87 l-26 30 1 340 0 340 25 -90 c14 -49 32 -117 40 -150 8 -33 21 -80 29
-105 7 -25 17 -61 20 -80 4 -19 15 -62 25 -95 10 -33 32 -116 50 -185 17 -69
41 -160 52 -204 12 -43 22 -86 23 -95 1 -9 5 -23 8 -31 3 -8 8 -23 11 -33 5
-16 26 -17 288 -17 l283 1 -3 1575 -2 1574 -369 0 c-286 0 -370 -3 -374 -12
-4 -10 -6 -10 -6 0 -1 16 -821 18 -821 1 0 -5 -5 -7 -12 -3 -6 4 -9 3 -5 -2 8
-13 -20 -47 -32 -39 -6 3 -11 17 -11 31 l0 24 -730 0 c-401 0 -730 -4 -730 -8
0 -4 -18 -28 -40 -52 l-39 -45 -1 37 c0 20 -3 43 -6 52 -6 15 -155 16 -1590
16 l-1583 0 -41 -54z m3325 -201 l77 -109 -26 -181 c-30 -194 -43 -269 -45
-245 -1 14 -13 96 -61 410 -12 74 -23 157 -26 184 -3 27 -8 54 -11 60 -17 31
22 -20 92 -119z m1468 52 c-3 -6 -1 -7 6 -3 6 4 14 0 18 -11 4 -10 31 -49 60
-86 l53 -69 0 -787 c0 -432 3 -1010 6 -1283 4 -285 3 -498 -2 -497 -13 0 -57
59 -57 75 0 8 -2 12 -5 10 -4 -5 -92 100 -92 109 0 4 6 3 13 -1 9 -6 9 -4 -1
8 -10 13 -14 267 -18 1264 -2 687 -5 1258 -6 1269 -2 44 2 51 17 31 8 -10 12
-23 8 -29z m-4220 -389 c4 -227 11 -804 17 -1283 6 -478 13 -893 16 -921 4
-43 14 -63 54 -115 l50 -64 -177 -3 c-97 -1 -177 -1 -178 0 -2 2 1 325 6 718
4 393 8 995 8 1338 l1 623 -40 54 c-22 30 -40 57 -40 60 0 3 62 5 138 5 l139
0 6 -412z m1024 -38 c62 -245 177 -699 256 -1009 l142 -565 5 100 c3 54 7 277
8 494 1 217 5 600 8 850 l6 455 -51 57 c-28 31 -51 59 -51 62 0 3 65 6 145 6
l145 0 0 -122 c0 -135 16 -1505 25 -2230 l6 -458 -119 0 c-84 0 -123 4 -129
13 -6 6 -18 48 -27 92 -18 82 -239 969 -366 1465 -39 151 -104 408 -146 570
-41 162 -77 296 -80 299 -26 26 -27 -50 -14 -1155 l13 -1137 58 -66 c32 -36
55 -69 52 -73 -6 -10 -325 -9 -339 0 -6 4 -7 111 -3 272 4 146 9 746 13 1333
l5 1069 -37 51 c-21 29 -42 58 -46 65 -6 10 34 12 200 10 l208 -3 113 -445z
m1413 445 c0 -7 109 -724 120 -790 5 -33 48 -312 95 -620 47 -307 87 -560 88
-562 2 -2 81 472 163 982 12 77 47 295 78 484 31 189 56 352 56 363 0 11 -21
48 -46 84 l-46 64 171 0 c141 0 171 -3 171 -14 0 -8 -25 -162 -56 -343 -31
-180 -94 -551 -140 -823 -154 -903 -263 -1555 -266 -1590 l-3 -35 -88 -3 c-64
-2 -89 1 -92 10 -2 7 -16 94 -30 193 -27 182 -67 435 -175 1095 -33 201 -98
596 -144 879 l-85 514 -58 59 -57 58 172 0 c95 0 172 -2 172 -5z m1555 -1327
l7 -1332 54 -67 c30 -36 54 -69 54 -73 0 -3 -80 -6 -177 -6 l-178 0 4 1341 3
1342 -41 58 c-23 32 -41 60 -41 64 0 3 69 5 154 5 l154 0 7 -1332z m958 1140
c51 -207 199 -816 299 -1223 33 -137 79 -326 102 -420 l42 -170 7 430 c4 237
7 661 7 943 l0 513 -50 53 c-27 29 -50 56 -50 59 0 4 72 7 160 7 l160 0 0
-637 c0 -351 3 -983 6 -1405 l6 -768 -126 0 c-122 0 -126 1 -131 23 -25 114
-122 513 -149 614 -19 71 -68 261 -110 423 -42 162 -105 408 -141 545 -36 138
-96 374 -135 525 -39 151 -72 280 -75 285 -2 6 -4 -502 -4 -1127 l-1 -1137 60
-70 c33 -39 60 -73 60 -76 0 -3 -80 -4 -177 -3 -171 3 -178 4 -176 23 2 11 6
612 10 1336 l6 1315 -40 55 c-21 30 -43 60 -47 67 -6 9 40 12 216 12 l224 0
47 -192z m-4657 96 c10 -14 31 -41 45 -59 l26 -34 7 -523 c3 -288 11 -843 17
-1233 6 -391 10 -719 8 -730 -3 -14 -14 -6 -47 38 -23 31 -47 68 -52 82 -5 14
-10 174 -11 357 -1 183 -3 367 -4 408 -1 41 -5 309 -8 595 -4 286 -10 656 -13
823 -4 192 -3 302 4 302 5 0 18 -12 28 -26z m4931 -224 c-1 -66 -5 -120 -9
-120 -5 0 -8 8 -9 18 -1 22 -4 36 -19 92 -12 43 -15 55 -25 101 -2 12 -9 36
-14 53 -24 82 -23 84 29 29 l50 -53 -3 -120z m-3999 109 c-3 -8 -7 -3 -11 10
-4 17 -3 21 5 13 5 -5 8 -16 6 -23z m-114 -2099 c13 -47 33 -120 45 -162 31
-114 62 -228 71 -266 7 -29 6 -31 -7 -20 -8 7 -43 46 -76 88 -34 41 -70 84
-79 94 -16 18 -18 43 -17 255 l1 236 19 -70 c11 -38 30 -108 43 -155z"/>
<path d="M9659 6947 c-28 -26 -171 -185 -180 -200 -4 -5 -12 -6 -19 -2 -9 6
-11 4 -5 -4 4 -8 -5 -24 -24 -43 l-31 -30 0 -1274 0 -1273 33 -38 c29 -34 77
-86 198 -214 l46 -48 412 -7 411 -6 40 43 c22 24 57 62 77 86 20 23 41 39 47
36 6 -3 8 -3 4 1 -7 8 6 26 70 96 l42 47 0 392 c0 327 -2 395 -14 407 -8 8
-18 14 -22 14 -4 0 -44 27 -89 59 -46 33 -93 65 -106 71 -12 7 -28 17 -33 21
-6 5 -27 20 -46 32 -19 13 -90 60 -158 106 -68 46 -125 81 -127 79 -3 -2 -5
-192 -6 -421 l-1 -417 -89 0 -89 0 0 950 0 950 90 0 90 0 0 -274 0 -275 55
-43 c30 -24 72 -55 95 -71 22 -15 38 -32 35 -37 -4 -6 -2 -9 4 -8 14 4 92 -50
180 -122 36 -30 92 -72 124 -94 31 -21 57 -42 57 -46 0 -10 49 -30 54 -22 2 4
5 297 5 651 1 354 4 648 7 653 3 5 2 7 -3 6 -7 -3 -59 50 -192 194 -9 9 -34
35 -56 57 l-39 41 -412 0 -411 0 -24 -23z m854 -251 l87 -94 0 -436 c0 -240
-2 -436 -5 -436 -3 0 -57 39 -120 86 l-115 86 0 319 0 319 -270 0 -270 0 0
-1122 c0 -618 3 -1133 6 -1145 l6 -23 264 0 264 0 2 349 3 350 117 -77 116
-77 1 -220 c1 -121 4 -256 7 -300 l6 -80 -88 -107 -89 -108 -340 0 -340 1 -87
99 -88 99 0 1208 0 1208 91 98 91 97 332 0 333 0 86 -94z"/>
<path d="M10809 6940 c-12 -16 -27 -26 -33 -23 -6 3 -8 2 -3 -2 4 -5 -3 -19
-15 -33 -21 -21 -21 -25 -7 -35 9 -7 53 -65 97 -130 l80 -117 -5 -1378 c-2
-757 0 -1383 4 -1389 7 -10 96 -13 366 -13 362 -1 381 1 384 35 3 21 19 13 32
-16 l13 -30 552 6 551 6 136 142 137 142 6 90 c3 50 7 304 8 565 l2 475 -82
61 c-64 49 -79 64 -68 73 7 6 16 8 19 4 4 -3 7 0 7 8 0 14 100 89 119 89 14 0
16 1166 1 1175 -6 3 -8 11 -5 16 4 5 0 9 -7 9 -7 0 -26 19 -43 42 -16 22 -43
58 -60 78 -16 20 -43 54 -60 74 -16 20 -29 42 -27 47 1 6 -2 8 -7 5 -5 -4 -18
7 -27 24 l-18 30 -626 0 -625 0 -14 -22 c-8 -13 -20 -34 -28 -48 -12 -24 -13
-23 -13 23 l0 47 -360 0 -359 0 -22 -30z m833 -242 l63 -84 -1 -524 c-1 -289
-2 -882 -3 -1318 0 -468 -5 -791 -10 -788 -5 3 -25 30 -45 58 -20 29 -53 75
-74 102 l-37 48 6 1294 c4 712 10 1302 14 1311 6 17 7 17 16 1 5 -9 37 -54 71
-100z m-282 -1241 l0 -1333 55 -66 c30 -36 55 -69 55 -72 0 -3 -80 -6 -179 -6
l-178 0 5 1339 5 1339 -47 66 -47 66 165 0 166 0 0 -1333z m1471 1225 l86
-107 8 -496 7 -496 -146 -108 c-80 -60 -146 -111 -146 -114 1 -3 65 -52 143
-107 l142 -101 3 -487 2 -486 -87 -100 -88 -100 -428 3 -428 2 1 315 c1 173 3
351 4 395 2 44 4 505 6 1024 l2 943 -41 59 c-22 32 -41 60 -41 64 0 3 206 5
458 4 l457 0 86 -107z"/>
<path d="M12140 6353 c0 -104 3 -380 7 -614 l6 -427 43 32 c58 43 312 237 410
312 l81 63 6 107 c4 59 7 244 7 411 l0 303 -280 0 -280 0 0 -187z m340 -260
l-1 -268 -25 -18 c-14 -10 -31 -16 -39 -13 -9 3 -12 0 -9 -8 3 -7 -12 -24 -33
-38 l-38 -25 1 46 c0 25 1 169 2 319 l2 272 70 0 70 0 0 -267z"/>
<path d="M12262 5138 l-112 -100 2 -397 3 -396 254 -3 c140 -1 258 1 263 6 5
5 11 179 15 388 l6 379 -145 113 c-80 61 -152 112 -160 111 -7 0 -64 -45 -126
-101z m164 -147 c13 -10 20 -21 16 -25 -3 -4 1 -4 11 0 16 6 17 -12 17 -250
l0 -256 -70 0 -70 0 0 246 0 245 32 30 c18 16 34 29 36 29 2 0 15 -8 28 -19z"/>
<path d="M13113 6940 c-9 -16 -21 -30 -25 -30 -4 0 -8 -5 -8 -11 0 -7 -7 -17
-15 -23 -14 -10 -11 -17 17 -56 18 -25 35 -47 38 -50 3 -3 27 -39 55 -80 27
-41 54 -78 58 -81 5 -4 7 -47 3 -95 -3 -49 -8 -456 -11 -904 -3 -448 -8 -1024
-11 -1280 l-6 -465 25 -27 26 -28 1494 0 1495 0 26 35 c15 20 31 33 37 30 5
-3 6 1 3 9 -4 9 1 18 10 22 14 5 13 9 -5 35 -11 16 -17 29 -13 29 4 0 -5 10
-20 21 -15 12 -25 28 -22 35 3 8 1 13 -5 11 -5 -1 -17 11 -27 28 -9 16 -25 36
-34 43 -10 7 -15 19 -11 29 4 10 2 14 -4 10 -31 -19 -34 21 -31 411 2 215 0
388 -4 386 -9 -6 -40 10 -60 29 -7 7 -42 32 -78 56 -78 52 -251 172 -265 183
-5 5 -28 22 -50 39 l-40 31 0 210 c0 246 20 218 -159 225 l-119 5 6 135 c4 75
7 219 7 320 l0 183 50 0 51 0 -1 -257 c-1 -141 3 -259 8 -262 47 -32 132 -104
132 -112 0 -6 4 -7 10 -4 9 6 112 -69 118 -86 2 -5 7 -7 11 -5 6 4 61 -35 121
-87 8 -7 34 -26 58 -41 24 -16 47 -36 52 -45 5 -9 10 -13 10 -8 0 4 17 -4 39
-18 21 -14 54 -28 73 -32 l36 -5 6 88 c3 49 8 334 12 634 l6 545 -38 44 c-22
24 -50 56 -64 71 -14 14 -59 63 -100 108 l-75 82 -645 0 c-604 0 -646 -1 -656
-17 -6 -10 -11 -20 -10 -23 0 -3 -9 -19 -22 -37 -27 -39 -27 -37 3 -77 14 -18
25 -38 25 -44 0 -7 4 -12 8 -12 5 0 15 -12 23 -27 8 -15 26 -40 41 -57 16 -17
33 -46 39 -65 9 -26 9 -264 0 -960 -6 -509 -13 -1009 -16 -1111 -2 -102 -4
-239 -5 -305 0 -112 -1 -118 -16 -97 -9 13 -13 29 -10 37 3 8 0 12 -7 9 -9 -3
-11 80 -9 359 l3 362 -68 50 c-37 27 -69 53 -71 57 -2 5 -8 8 -13 8 -10 0
-172 121 -177 133 -2 4 -9 7 -15 7 -7 0 -32 16 -56 35 -24 19 -47 35 -50 35
-4 0 -29 18 -56 40 -93 73 -103 80 -122 80 -19 0 -20 -12 -26 -227 -4 -124 -7
-324 -7 -444 0 -120 -3 -219 -7 -222 -5 -2 -34 -1 -66 1 l-59 4 6 111 c3 62 9
510 12 997 4 487 9 996 13 1133 3 136 5 252 3 257 -2 6 -142 10 -382 10 l-379
0 -18 -30z m567 -1258 c0 -610 3 -1184 7 -1275 l6 -167 264 0 263 0 1 188 c1
103 4 270 8 370 l6 184 100 -72 c55 -39 108 -81 118 -92 15 -18 17 -51 17
-358 l0 -339 55 -68 54 -68 -571 -3 c-314 -1 -572 -1 -573 0 -1 2 2 271 6 598
4 327 10 929 14 1337 l7 741 -39 54 c-22 29 -43 59 -47 66 -6 9 27 12 148 12
l156 0 0 -1108z m2189 1011 l90 -98 1 -412 c0 -227 -2 -413 -5 -413 -3 0 -51
34 -105 75 l-100 76 0 309 0 310 -285 0 -285 0 0 -510 0 -510 140 0 140 0 0
-124 c0 -104 -3 -125 -16 -130 -9 -3 -72 -6 -140 -6 l-124 0 1 -407 c1 -225 4
-454 7 -510 l4 -103 262 0 263 0 6 182 c4 99 7 268 7 375 0 106 3 193 7 193
19 0 222 -148 227 -165 3 -11 6 -174 6 -361 l0 -341 55 -69 55 -69 -572 -3
c-314 -1 -572 -1 -573 0 -1 2 2 235 6 518 4 283 13 884 19 1335 l10 820 -38
55 c-21 30 -42 61 -46 68 -6 9 85 12 442 12 l450 0 91 -97z m-395 -1905 c-3
-161 -7 -303 -10 -315 -4 -20 -11 -23 -49 -23 l-45 0 0 263 c0 144 3 286 6
315 l7 52 48 0 48 0 -5 -292z"/>
</g>
</svg>
